<svg width="22" height="20" viewBox="0 0 22 20" fill="none" xmlns="http://www.w3.org/2000/svg">
<path d="M10.6826 20C16.5727 20 21.3652 15.5141 21.3652 10C21.3652 9.04826 21.2233 8.11035 20.9422 7.21212C20.8038 6.77043 20.3111 6.51672 19.838 6.64632C19.3657 6.77551 19.0955 7.23836 19.2335 7.68005C19.4663 8.42631 19.5848 9.20715 19.5848 10C19.5848 14.5949 15.5912 18.3333 10.6826 18.3333C5.77402 18.3333 1.78043 14.5949 1.78043 10C1.78043 5.40507 5.77402 1.66667 10.6826 1.66667C12.4665 1.66667 14.1828 2.15495 15.6459 3.07841C16.0532 3.33577 16.607 3.23466 16.8815 2.85339C17.1562 2.47172 17.0491 1.95374 16.6413 1.69657C14.8831 0.586751 12.8227 0 10.6826 0C4.79252 0 0 4.48588 0 10C0 15.5141 4.79252 20 10.6826 20Z" fill="white"/>
</svg>
